<?xml version="1.0" standalone="no"?>
<!DOCTYPE svg PUBLIC "-//W3C//DTD SVG 20010904//EN"
 "http://www.w3.org/TR/2001/REC-SVG-20010904/DTD/svg10.dtd">
<svg version="1.0" xmlns="http://www.w3.org/2000/svg"
 width="200.000000pt" height="200.000000pt" viewBox="0 0 200.000000 200.000000"
 preserveAspectRatio="xMidYMid meet">
<metadata>
Created by potrace 1.13, written by Peter Selinger 2001-2015
</metadata>
<g transform="translate(0.000000,200.000000) scale(0.100000,-0.100000)"
fill="#000000" stroke="none">
<path d="M992 1963 c-14 -6 -46 -65 -56 -105 -5 -24 -1 -54 19 -145 6 -27 71
-73 102 -73 13 0 31 10 41 21 9 12 27 31 40 42 13 12 22 33 23 51 1 47 11 67
29 56 33 -21 41 -11 21 28 -46 89 -155 151 -219 125z"/>
<path d="M865 1666 c-121 -52 -177 -284 -126 -515 11 -52 44 -146 72 -210 150
-342 198 -503 206 -691 3 -69 10 -131 15 -137 11 -13 228 -19 241 -7 3 4 -17
27 -44 53 l-50 46 -10 205 c-5 113 -14 231 -20 262 -11 61 -143 491 -184 598
-14 36 -25 69 -25 73 0 17 27 3 127 -68 119 -85 193 -113 314 -122 99 -7 109
7 31 46 -92 47 -242 150 -304 211 -49 49 -57 62 -68 115 -17 84 -33 110 -83
134 -50 24 -52 24 -92 7z"/>
<path d="M1363 1097 c-43 -21 -55 -43 -29 -53 8 -3 32 4 54 15 29 15 42 17 51
8 8 -8 11 -146 11 -499 0 -414 2 -488 14 -488 12 0 14 76 15 497 1 440 0 501
-14 521 -20 27 -47 27 -102 -1z"/>
<path d="M758 851 c5 -162 -5 -227 -73 -467 -30 -107 -55 -207 -55 -223 0 -48
26 -61 122 -61 46 0 87 3 91 6 3 4 -7 19 -22 35 -51 50 -49 65 29 249 38 92
70 175 70 183 0 29 -138 374 -159 399 -3 4 -4 -51 -3 -121z"/>
</g>
</svg>
