<?xml version="1.0" standalone="no"?>
<!DOCTYPE svg PUBLIC "-//W3C//DTD SVG 20010904//EN"
 "http://www.w3.org/TR/2001/REC-SVG-20010904/DTD/svg10.dtd">
<svg version="1.0" xmlns="http://www.w3.org/2000/svg"
 width="256.000000pt" height="256.000000pt" viewBox="0 0 256.000000 256.000000"
 preserveAspectRatio="xMidYMid meet">
<metadata>
Created by potrace 1.13, written by Peter Selinger 2001-2015
</metadata>
<g transform="translate(0.000000,256.000000) scale(0.100000,-0.100000)"
fill="#000000" stroke="none">
<path d="M1092 2539 c-209 -20 -386 -94 -510 -213 -42 -41 -113 -103 -156
-137 -136 -108 -284 -310 -347 -472 -42 -108 -79 -258 -79 -317 0 -26 9 -89
20 -141 11 -52 20 -133 20 -180 0 -133 31 -271 85 -379 13 -25 28 -81 35 -125
26 -170 67 -260 143 -312 23 -15 87 -67 142 -115 55 -48 101 -84 103 -79 2 5
-8 47 -22 93 -96 318 -139 578 -152 916 l-7 173 -34 -33 c-48 -47 -80 -98 -87
-140 -8 -45 -23 -48 -58 -11 -43 47 -50 70 -43 133 5 43 2 74 -11 117 -9 32
-17 87 -17 123 -1 192 167 492 381 677 53 46 72 56 163 82 239 69 420 112 519
122 183 19 406 -23 575 -109 75 -38 152 -62 199 -62 77 0 304 -246 396 -430
83 -166 104 -280 71 -389 -16 -52 -21 -91 -19 -148 3 -70 0 -82 -23 -115 -21
-31 -28 -36 -41 -25 -8 6 -20 30 -26 52 -8 30 -24 50 -60 78 -27 20 -51 37
-53 37 -2 0 -3 -46 -1 -102 6 -187 -27 -488 -89 -808 -17 -85 -32 -163 -35
-173 -5 -17 -3 -17 33 2 68 34 198 136 231 182 45 60 70 133 83 241 6 51 22
120 35 153 53 131 64 190 64 355 0 126 4 167 20 218 26 84 25 139 -4 256 -45
174 -157 378 -287 520 -58 63 -190 183 -312 284 -74 61 -235 138 -348 166
-167 42 -315 53 -497 35z"/>
<path d="M485 1322 c-48 -30 -56 -45 -62 -134 -12 -176 24 -465 103 -818 54
-244 80 -308 137 -329 35 -13 40 -12 65 6 53 39 66 104 66 333 0 204 -7 292
-45 510 -26 153 -54 250 -95 337 -52 108 -101 136 -169 95z"/>
<path d="M1969 1315 c-107 -58 -203 -554 -185 -965 11 -271 56 -369 149 -325
62 29 81 87 136 405 51 301 55 346 56 587 l0 231 -25 27 c-27 29 -71 55 -92
55 -7 -1 -25 -7 -39 -15z"/>
</g>
</svg>
