<?xml version="1.0" standalone="no"?>
<!DOCTYPE svg PUBLIC "-//W3C//DTD SVG 20010904//EN"
 "http://www.w3.org/TR/2001/REC-SVG-20010904/DTD/svg10.dtd">
<svg version="1.0" xmlns="http://www.w3.org/2000/svg"
 width="300.000000pt" height="300.000000pt" viewBox="0 0 300.000000 300.000000"
 preserveAspectRatio="xMidYMid meet">
<metadata>
Created by potrace 1.13, written by Peter Selinger 2001-2015
</metadata>
<g transform="translate(0.000000,300.000000) scale(0.100000,-0.100000)"
fill="#000000" stroke="none">
<path d="M153 2570 c-12 -5 -27 -18 -32 -29 -18 -32 -10 -2006 7 -2023 19 -19
2765 -19 2784 0 10 10 14 209 16 1013 l2 1000 -24 24 -25 25 -1353 -1 c-754 0
-1363 -4 -1375 -9z m1982 -669 c-280 -280 -526 -518 -545 -530 -57 -34 -99
-28 -167 23 -32 25 -276 263 -543 530 l-485 486 1125 0 1125 0 -510 -509z
m625 -363 l0 -753 -375 375 c-206 206 -375 382 -375 390 0 18 719 740 737 740
10 0 13 -156 13 -752z m-2102 369 l372 -372 -375 -375 -375 -375 0 748 c0 411
1 747 3 747 1 0 170 -168 375 -373z m1613 -873 l374 -374 -1121 0 c-616 0
-1124 3 -1128 7 -9 9 724 743 742 743 8 0 57 -41 110 -90 216 -203 308 -200
531 15 54 52 91 81 101 78 9 -2 185 -173 391 -379z"/>
</g>
</svg>
