<?xml version="1.0" standalone="no"?>
<!DOCTYPE svg PUBLIC "-//W3C//DTD SVG 20010904//EN"
 "http://www.w3.org/TR/2001/REC-SVG-20010904/DTD/svg10.dtd">
<svg version="1.0" xmlns="http://www.w3.org/2000/svg"
 width="1024.000000pt" height="1024.000000pt" viewBox="0 0 1024.000000 1024.000000"
 preserveAspectRatio="xMidYMid meet">
<metadata>
Created by potrace 1.13, written by Peter Selinger 2001-2015
</metadata>
<g transform="translate(0.000000,1024.000000) scale(0.100000,-0.100000)"
fill="#000000" stroke="none">
<path d="M6083 8519 c-153 -30 -272 -158 -289 -310 l-7 -59 -1926 0 c-2106 0
-1982 3 -2093 -57 -64 -35 -143 -120 -173 -186 -36 -77 -45 -142 -44 -301 l0
-141 15 55 c43 161 186 286 354 310 39 6 842 10 1966 10 l1901 0 7 58 c13 119
93 228 204 280 l57 27 1005 0 1005 0 57 -28 c71 -35 149 -119 177 -190 l21
-52 -3 170 c-2 164 -3 172 -30 223 -52 100 -142 167 -255 191 -63 13 -1882 14
-1949 0z"/>
<path d="M6067 7889 c-142 -34 -256 -163 -273 -311 l-7 -58 -1939 0 c-1924 0
-1939 0 -1999 -20 -147 -50 -245 -155 -285 -305 -11 -41 -14 -460 -14 -2341 0
-1507 3 -2310 10 -2345 28 -147 133 -267 285 -325 49 -19 126 -19 3050 -22
1909 -2 3023 1 3063 7 143 22 265 112 325 239 l32 67 6 220 c4 121 8 1269 8
2551 l1 2331 -21 64 c-40 122 -120 203 -237 239 -62 19 -92 20 -1016 19 -523
-1 -968 -5 -989 -10z"/>
</g>
</svg>
